<?xml version="1.0" encoding="UTF-8" standalone="no"?>
<!-- Created with Inkscape (http://www.inkscape.org/) -->

<svg
   width="1133.006"
   height="560.98981"
   viewBox="0 0 299.7745 148.42856"
   version="1.1"
   id="svg1"
   inkscape:version="1.4 (86a8ad7, 2024-10-11)"
   sodipodi:docname="logo.svg"
   inkscape:export-filename="logo.png"
   inkscape:export-xdpi="96"
   inkscape:export-ydpi="96"
   xmlns:inkscape="http://www.inkscape.org/namespaces/inkscape"
   xmlns:sodipodi="http://sodipodi.sourceforge.net/DTD/sodipodi-0.dtd"
   xmlns:xlink="http://www.w3.org/1999/xlink"
   xmlns="http://www.w3.org/2000/svg"
   xmlns:svg="http://www.w3.org/2000/svg">
  <sodipodi:namedview
     id="namedview1"
     pagecolor="#ffffff"
     bordercolor="#000000"
     borderopacity="0.25"
     inkscape:showpageshadow="2"
     inkscape:pageopacity="0.0"
     inkscape:pagecheckerboard="0"
     inkscape:deskcolor="#d1d1d1"
     inkscape:document-units="mm"
     inkscape:zoom="0.48517716"
     inkscape:cx="310.19597"
     inkscape:cy="-62.863636"
     inkscape:window-width="1920"
     inkscape:window-height="991"
     inkscape:window-x="-9"
     inkscape:window-y="-9"
     inkscape:window-maximized="1"
     inkscape:current-layer="layer1" />
  <defs
     id="defs1">
    <linearGradient
       id="linearGradient1"
       inkscape:collect="always">
      <stop
         style="stop-color:#fefefe;stop-opacity:0.95851201;"
         offset="0"
         id="stop1" />
      <stop
         style="stop-color:#fefefe;stop-opacity:0;"
         offset="1"
         id="stop2" />
    </linearGradient>
    <linearGradient
       id="swatch18"
       inkscape:swatch="solid">
      <stop
         style="stop-color:#000000;stop-opacity:0.32474965;"
         offset="0"
         id="stop18" />
    </linearGradient>
    <linearGradient
       id="linearGradient7"
       inkscape:collect="always">
      <stop
         style="stop-color:#0000ff;stop-opacity:1;"
         offset="0"
         id="stop8" />
      <stop
         style="stop-color:#0000ff;stop-opacity:0;"
         offset="1"
         id="stop9" />
    </linearGradient>
    <rect
       x="155.05167"
       y="203.31277"
       width="457.96716"
       height="160.18582"
       id="rect4" />
    <rect
       x="154.02483"
       y="212.55426"
       width="532.9259"
       height="143.75652"
       id="rect3" />
    <linearGradient
       inkscape:collect="always"
       xlink:href="#linearGradient7"
       id="linearGradient9"
       x1="156.68858"
       y1="250.49802"
       x2="609.91229"
       y2="250.49802"
       gradientUnits="userSpaceOnUse" />
    <linearGradient
       inkscape:collect="always"
       xlink:href="#swatch18"
       id="linearGradient18"
       x1="156.68851"
       y1="250.49802"
       x2="609.91241"
       y2="250.49802"
       gradientUnits="userSpaceOnUse" />
    <linearGradient
       inkscape:collect="always"
       xlink:href="#linearGradient1"
       id="linearGradient2"
       x1="152.33394"
       y1="250.49802"
       x2="614.26697"
       y2="250.49802"
       gradientUnits="userSpaceOnUse" />
  </defs>
  <g
     inkscape:label="Capa 1"
     inkscape:groupmode="layer"
     id="layer1"
     transform="translate(-11.433688,-29.613209)">
    <path
       id="path1"
       style="opacity:0.88;fill:#0000ff;fill-opacity:1;stroke:#cfcfcf;stroke-width:1.83208;stroke-dasharray:27.4816;stroke-opacity:0.140541;paint-order:markers fill stroke"
       d="M 175.84921,46.026919 A 112.00736,62.156644 24.63638 0 0 50.332049,58.758019 112.00736,62.156644 24.63638 0 0 129.82652,161.62802 112.00736,62.156644 24.63638 0 0 255.34372,148.89693 112.00736,62.156644 24.63638 0 0 175.84921,46.026919 Z m -3.29112,11.309746 A 96.725121,50.456381 24.014064 0 1 241.39501,142.72221 96.725121,50.456381 24.014064 0 1 133.14803,150.24908 96.725121,50.456381 24.014064 0 1 64.311477,64.862668 96.725121,50.456381 24.014064 0 1 172.55809,57.336665 Z" />
    <path
       id="path1-8"
       style="opacity:0.88;fill:#4d4d4d;stroke:#cfcfcf;stroke-width:1.85169;stroke-miterlimit:0;stroke-dasharray:27.7757;stroke-dashoffset:0;stroke-opacity:0.140541;paint-order:markers fill stroke"
       d="M 127.84604,47.73745 A 61.930164,114.88683 67.303934 0 0 49.890847,149.55385 61.930164,114.88683 67.303934 0 0 182.3031,159.15137 61.930164,114.88683 67.303934 0 0 260.25832,57.334969 61.930164,114.88683 67.303934 0 0 127.84604,47.73745 Z m 6.17213,9.999446 A 50.274906,99.20703 66.696451 0 1 245.91392,63.581505 50.274906,99.20703 66.696451 0 1 176.10033,149.08314 50.274906,99.20703 66.696451 0 1 64.204209,143.23767 50.274906,99.20703 66.696451 0 1 134.01817,57.736896 Z" />
    <text
       xml:space="preserve"
       transform="scale(0.26458333)"
       id="text3"
       style="font-size:74.6667px;text-align:start;writing-mode:lr-tb;direction:ltr;white-space:pre;shape-inside:url(#rect3);display:inline;opacity:0.86;fill:#0000ff;fill-opacity:1;stroke:#000000;stroke-width:3.76441;stroke-miterlimit:0;stroke-dasharray:56.4664;stroke-dashoffset:0;stroke-opacity:0.140541;paint-order:markers fill stroke" />
    <text
       xml:space="preserve"
       transform="matrix(0.64650845,0,0,0.84054874,-86.486041,-109.19834)"
       id="text4"
       style="font-style:normal;font-variant:normal;font-weight:bold;font-stretch:normal;font-size:106.667px;font-family:Amiri;-inkscape-font-specification:'Amiri, Bold';font-variant-ligatures:normal;font-variant-caps:normal;font-variant-numeric:normal;font-variant-east-asian:normal;text-align:start;writing-mode:lr-tb;direction:ltr;white-space:pre;shape-inside:url(#rect4);display:inline;opacity:1;fill:#3939ff;fill-opacity:1;stroke:#fffdfd;stroke-width:12.4737;stroke-linecap:round;stroke-linejoin:round;stroke-miterlimit:0;stroke-dasharray:none;stroke-dashoffset:0;stroke-opacity:1;paint-order:stroke fill markers"><tspan
         x="155.05078"
         y="284.8448"
         id="tspan2">LIANSUR</tspan></text>
  </g>
</svg>
